<svg width="9" height="9" viewBox="0 0 9 9" fill="none" xmlns="http://www.w3.org/2000/svg">
<path d="M5.985 4.50029L8.76927 1.71602C9.07691 1.40838 9.07691 0.909633 8.76927 0.60248L8.3981 0.231302C8.09037 -0.0764276 7.59162 -0.0764276 7.28446 0.231302L4.50029 3.01548L1.71602 0.230725C1.40838 -0.0769083 0.909633 -0.0769083 0.60248 0.230725L0.230725 0.601903C-0.0769083 0.909633 -0.0769083 1.40838 0.230725 1.71554L3.01548 4.50029L0.231302 7.28446C-0.0764276 7.59219 -0.0764276 8.09094 0.231302 8.3981L0.60248 8.76927C0.910113 9.07691 1.40886 9.07691 1.71602 8.76927L4.50029 5.985L7.28446 8.76927C7.59219 9.07691 8.09094 9.07691 8.3981 8.76927L8.76927 8.3981C9.07691 8.09037 9.07691 7.59162 8.76927 7.28446L5.985 4.50029Z" fill="#656D75"/>
</svg>
