<svg width="19.000000" height="19.000000" viewBox="0 0 19 19" fill="none" xmlns="http://www.w3.org/2000/svg" xmlns:xlink="http://www.w3.org/1999/xlink">
	<desc>
			Created with Pixso.
	</desc>
	<defs>
		<clipPath id="clip20_131">
			<rect id="circular-graphic-of-business-cycle-or-circuit 1" width="13.000000" height="13.000000" transform="translate(3.000000 3.000000)" fill="white" fill-opacity="0"/>
		</clipPath>
	</defs>
	<circle id="Ellipse 1" cx="9.500000" cy="9.500000" r="9.500000" fill="#EA3738" fill-opacity="1.000000"/>
	<rect id="circular-graphic-of-business-cycle-or-circuit 1" width="13.000000" height="13.000000" transform="translate(3.000000 3.000000)" fill="#FFFFFF" fill-opacity="0"/>
	<g clip-path="url(#clip20_131)">
		<path id="Vector" d="M15.43 7.14L13.75 7.93C14.42 9.38 14.21 11.14 13.12 12.41L12.21 11.49L12.21 14.67L15.39 14.67L14.44 13.73C16.1 11.89 16.43 9.28 15.43 7.14Z" fill="#FFFFFF" fill-opacity="1.000000" fill-rule="nonzero"/>
		<path id="Vector" d="M5.87 6.58L6.78 7.5L6.78 4.32L3.6 4.32L4.54 5.26C2.89 7.1 2.56 9.71 3.56 11.85L5.24 11.06C4.57 9.61 4.77 7.85 5.87 6.58Z" fill="#FFFFFF" fill-opacity="1.000000" fill-rule="nonzero"/>
		<path id="Vector" d="M10.99 9.5C10.99 10.32 10.32 11 9.49 11C8.67 11 7.99 10.32 7.99 9.5C7.99 8.67 8.67 8 9.49 8C10.32 8 10.99 8.67 10.99 9.5Z" fill="#FFFFFF" fill-opacity="1.000000" fill-rule="evenodd"/>
	</g>
</svg>
